<svg width="1080" height="959.9999999999999" xmlns="http://www.w3.org/2000/svg" xmlns:svg="http://www.w3.org/2000/svg">
 <g>
  <title>Layer 1</title>
  <rect height="95.5882" width="142.647" y="4.50001" x="6.1765" stroke-width="5" stroke="#000000" fill="transparent" id="svg_1"/>
  <ellipse ry="77.2062" rx="86.0292" cy="159.647" cx="212.794" stroke-width="5" stroke="#fc758e" fill="transparent" id="svg_2"/>
  <line y2="210.382" x2="281.177" y1="319.206" x1="397.353" stroke-width="5" stroke="#adafaa" fill="none" id="svg_3"/>
  <text xml:space="preserve" y="335.3824" x="394.4119" text-anchor="middle" stroke-width="0" stroke="#adafaa" fill="#000000" style="cursor: move; pointer-events: inherit;" font-size="24" font-family="serif" id="svg_4">Hello There</text>
  <path d="m523.82355,444.2059c-2.17523,-0.03064 -2.63971,-0.7034 -3.35883,-1.34708c-0.66168,-0.59222 -0.97809,-1.08023 -1.47253,-1.88821c-0.39575,-0.64679 -1.27325,-1.26334 -1.75568,-1.94241c-0.62732,-0.88303 -0.68475,-1.6716 -0.80316,-2.48505c-0.08368,-0.57492 -0.3576,-1.75912 -0.7287,-2.63138c-0.25342,-0.59561 -0.84857,-1.76666 -1.1524,-2.35956c-0.3147,-0.61404 -0.65118,-1.26242 -1.26788,-2.2973c-0.45605,-0.76526 -0.96606,-1.54288 -1.22552,-1.93015c-0.50574,-0.75485 -1.19083,-1.77533 -1.83432,-2.50955c-0.52853,-0.60306 -1.35355,-1.19507 -2.07327,-1.65198c-0.53601,-0.34027 -1.42493,-0.93649 -2.26889,-1.81445c-0.30795,-0.32034 -0.8855,-1.0542 -1.47058,-1.82721c-0.29572,-0.39069 -1.16489,-1.55093 -1.76273,-2.24704c-0.56378,-0.65646 -1.12241,-1.23834 -1.64117,-1.76471c-0.67838,-0.68829 -1.26474,-1.26663 -1.82059,-1.82257c-0.83633,-0.83649 -1.33072,-1.32336 -1.83432,-1.86493c-0.51828,-0.55737 -1.4454,-1.72928 -1.8277,-2.30908c-0.35358,-0.53629 -1.08017,-1.63501 -1.71741,-1.99756c-0.668,-0.38007 -1.58716,-0.90176 -2.08038,-1.34116c-0.52319,-0.46606 -1.48236,-1.42941 -2.08456,-2.03162c-0.50955,-0.50955 -1.29019,-1.23499 -1.70172,-1.73309c-0.63647,-0.77042 -1.02786,-1.6496 -1.33014,-2.32278c-0.31625,-0.70428 -0.48019,-1.56036 -1.49512,-2.40417c-0.63446,-0.5275 -1.57584,-0.38364 -2.30734,-1.05441c-0.6738,-0.61786 -1.2854,-0.88937 -2.06665,-1.4772c-0.71768,-0.54001 -0.8772,-1.58218 -1.28113,-2.41592c-0.3092,-0.63821 -0.97937,-1.13403 -1.66006,-1.9184c-0.54996,-0.6337 -0.8989,-1.48984 -0.98309,-2.2522c-0.09192,-0.83224 -0.0246,-2.00662 -0.06863,-2.87256c-0.04147,-0.81577 -0.28738,-1.76169 -0.7196,-2.48505c-0.46643,-0.78061 -0.68118,-1.54749 -0.98038,-2.48163c-0.23792,-0.74283 -0.66031,-1.58508 -0.93335,-2.23529c-0.45145,-1.07507 -0.7283,-1.85703 -1.02744,-2.63602c-0.28931,-0.75333 -0.67453,-1.78522 -1.17648,-2.50296c-0.3959,-0.56613 -1.47125,-0.8121 -2.08038,-1.3277c-0.66672,-0.56436 -0.08057,-1.9884 -0.6647,-2.57254c-0.58414,-0.58414 -1.85867,0.06415 -2.51764,-0.57059c-0.56729,-0.54642 -1.07639,-1.13724 -1.94315,-1.14508c-0.88232,-0.008 -1.7804,0 -2.89215,0c-0.71472,0 -1.48236,0 -2.45099,0c-0.94977,0 -1.86298,0 -2.65097,0c-1.00784,0 -1.74902,-0.00067 -2.51666,0c-1.12845,0.00098 -2.03195,-0.00864 -2.72452,0.41959c-0.6449,0.39877 -1.27789,1.25031 -1.91177,1.75565c-0.82877,0.66074 -1.61755,0.75809 -2.64706,0.76593c-0.73526,0.00562 -1.82849,0.11646 -2.64679,-0.32574c-0.62518,-0.33783 -0.92532,-1.39981 -1.40125,-2.09018c-0.47778,-0.69305 -1.07571,-1.22803 -1.71863,-1.81741c-0.58057,-0.53223 -1.13724,-1.07639 -1.14508,-2.09018c-0.00568,-0.73526 0.14252,-1.67926 -0.3255,-2.64706c-0.3121,-0.64542 -0.92233,-1.48508 -1.18234,-2.2059c-0.32602,-0.90384 -0.89984,-1.42416 -1.30981,-2.35095c-0.32285,-0.72983 -1.21207,-1.05527 -1.54117,-1.81961c-0.38666,-0.89798 -0.15088,-1.75806 -0.78824,-2.30002c-0.71405,-0.60718 -1.14853,-1.39413 -1.91373,-1.46863c-0.99268,-0.09662 -1.71881,-0.53061 -1.7608,-1.30588c-0.04749,-0.87714 -0.01428,-1.6373 -0.00195,-2.86273c0.00784,-0.78052 0.24893,-1.71332 0.62549,-2.31961c0.43185,-0.69534 0.6535,-1.59033 0.88235,-2.5412c0.22321,-0.92749 1.00223,-1.19324 1.87451,-1.27325c0.74173,-0.06805 1.57404,-0.68646 2.20587,-1.04633c0.83493,-0.47552 1.90256,-0.75671 2.5,-1.15295c0.86942,-0.57663 1.61758,-0.72745 2.5,-0.73529c0.88232,-0.00784 1.76471,0 2.79413,0c0.73529,0 1.76471,0 2.5,0c0.88235,0 1.99951,0.28983 2.71005,-0.08408c0.75769,-0.39871 1.16852,-1.26471 2.02646,-1.35587c0.72662,-0.07721 2.00598,-0.38422 2.73212,0.29483c0.57529,0.53799 1.07648,1.12943 1.94315,1.14511l0.88235,0l0.86667,0.01569" stroke-width="5" stroke="#003893" fill="none" id="svg_5"/>
 </g>
</svg>